<?xml version="1.0" encoding="utf-8"?>
<!-- Generator: Adobe Illustrator 22.1.0, SVG Export Plug-In . SVG Version: 6.00 Build 0)  -->
<svg version="1.1" id="Capa_1" xmlns="http://www.w3.org/2000/svg" xmlns:xlink="http://www.w3.org/1999/xlink" x="0px" y="0px"
	 viewBox="0 0 60 60" style="enable-background:new 0 0 60 60;" xml:space="preserve">
<style type="text/css">
	.st0{fill:#FF0000;}
</style>
<g>
	<path class="st0" d="M14,36.2h14v-10H14V36.2z M16,34.2v-3h10v3H16z M26,28.2v1H16v-1H26z"/>
	<path class="st0" d="M14,40.2v12h14v-12H14z M20,42.2v3h-4v-3H20z M16,47.2h4v3h-4V47.2z M22,50.2v-3h4v3H22z M26,45.2h-4v-3h4
		V45.2z"/>
	<path class="st0" d="M32,36.2h14v-10H32V36.2z M34,34.2v-1h10v1H34z M44,28.2v3H34v-3H44z"/>
	<path class="st0" d="M59,48.2c-0.6,0-1,0.4-1,1v1h-1v-1c0-0.6-0.4-1-1-1s-1,0.4-1,1v1h-1V30c0.5,0.2,1.1,0.4,1.6,0.4
		c1.1,0,2.1-0.4,2.9-1.3c0.8-0.8,1.1-1.9,1.1-3c-0.1-1.1-0.6-2.1-1.5-2.8L32.7,3.3L30,0.8l-2.7,2.5L1.9,23.2C1,23.9,0.5,24.9,0.4,26
		c-0.1,1.1,0.3,2.2,1.1,3c1.2,1.3,3,1.6,4.6,0.9v20.2H5v-1c0-0.6-0.4-1-1-1s-1,0.4-1,1v1H2v-1c0-0.6-0.4-1-1-1s-1,0.4-1,1v9
		c0,0.6,0.4,1,1,1s1-0.4,1-1v-1h1v1c0,0.6,0.4,1,1,1s1-0.4,1-1v-1h1v2h26h14h8v-2h1v1c0,0.6,0.4,1,1,1s1-0.4,1-1v-1h1v1
		c0,0.6,0.4,1,1,1s1-0.4,1-1v-9C60,48.6,59.6,48.2,59,48.2z M2.9,27.7c-0.4-0.4-0.6-1-0.5-1.5s0.3-1.1,0.8-1.4l25.5-20L30,3.5
		l1.4,1.3l25.4,19.9c0.4,0.3,0.7,0.9,0.8,1.4c0,0.6-0.1,1.1-0.5,1.5c-0.7,0.8-1.9,0.9-2.7,0.2L54,27.6l0,0L30,9.1L6.4,27.3l0,0
		l-0.8,0.6C4.8,28.6,3.6,28.5,2.9,27.7z M2,55.2v-3h1v3H2z M5,55.2v-3h1v3H5z M34,57.2v-15h10v15H34z M52,57.2h-6v-17H32v17H8V28.6
		l22-17l22,17V57.2z M54,55.2v-3h1v3H54z M57,55.2v-3h1v3H57z"/>
</g>
</svg>
