<?xml version="1.0" encoding="utf-8"?>
<!-- Generator: Adobe Illustrator 22.1.0, SVG Export Plug-In . SVG Version: 6.00 Build 0)  -->
<svg version="1.1" id="Layer_1" xmlns="http://www.w3.org/2000/svg" xmlns:xlink="http://www.w3.org/1999/xlink" x="0px" y="0px"
	 viewBox="0 0 462 462" style="enable-background:new 0 0 462 462;" xml:space="preserve">
<style type="text/css">
	.st0{fill:#FF0000;}
</style>
<path class="st0" d="M342.7,3.1c-1.9-2-4.5-3.1-7.2-3.1h-176C137.4,0,119,18.1,119,40.1V70H69.5C47.4,70,29,88.3,29,110.4v311.5
	c0,22.1,18.4,40.1,40.5,40.1h233c22.1,0,40.5-18.1,40.5-40.1V392h49.5c22.1,0,40.5-18.3,40.5-40.4V99.8c-0.1-2.6-1.2-5.1-3.1-7
	L342.7,3.1z M345,34.8L398.9,90h-47.1c-3.6-0.1-6.6-2.9-6.8-6.5V34.8z M323,421.9c0,11-9.5,20.1-20.5,20.1h-233
	c-11,0-20.5-9.1-20.5-20.1V110.4c0.2-11.2,9.3-20.2,20.5-20.4H119v261.6c0,22.1,18.4,40.4,40.5,40.4H323V421.9z M392.5,372h-233
	c-11.2-0.2-20.3-9.2-20.5-20.4V40.1c0-11,9.5-20.1,20.5-20.1H325v63.5c0,14.5,12.3,26.5,26.8,26.5H413v241.6
	C412.8,362.8,403.7,371.8,392.5,372z"/>
<path class="st0" d="M367.3,311H179.7c-5.5,0-10,4.5-10,10s4.5,10,10,10h187.6c5.5,0,10-4.5,10-10S372.8,311,367.3,311z"/>
<path class="st0" d="M179.7,287H292c5.5,0,10-4.5,10-10s-4.5-10-10-10H179.7c-5.5,0-10,4.5-10,10S174.2,287,179.7,287z"/>
<path class="st0" d="M276,213.3c-9.7,0-17.5-7.9-17.5-17.5c0-5.5-4.5-10-10-10c-5.5,0-10,4.5-10,10c0,16.5,10.8,31,26.5,35.9v8.4
	c0,5.5,4.5,10,10,10s10-4.5,10-10v-7.8c18.4-4.6,30.5-22.1,28.3-41c-2.3-18.8-18.3-33-37.3-33c-9.7,0-17.5-7.8-17.5-17.5
	c0-9.7,7.8-17.5,17.5-17.5c9.7,0,17.5,7.8,17.5,17.5c0,5.5,4.5,10,10,10c5.5,0,10-4.5,10-10c0-17.2-11.8-32.3-28.5-36.4V95
	c0-5.5-4.5-10-10-10s-10,4.5-10,10v9.8c-17.8,5.4-28.9,23.1-26.1,41.4c2.8,18.4,18.5,32,37.1,32c9.7-0.1,17.6,7.7,17.7,17.4
	c0.1,9.7-7.7,17.6-17.4,17.7C276.2,213.3,276.1,213.3,276,213.3L276,213.3z"/>
</svg>
