<svg viewBox="0 -24 432.00524 432" xmlns="http://www.w3.org/2000/svg"><path d="m156.945312 40.003906-15.578124-31.152344c-2.691407-5.4375-8.242188-8.8710932-14.3125-8.84765575h-111.054688c-8.835938 0-16 7.16406275-16 15.99999975v224c0 8.835938 7.164062 16 16 16h312v-16h-312v-224h111.054688l15.578124 31.152344c2.691407 5.4375 8.242188 8.871094 14.3125 8.847656h195.054688v32h16v-64c0-8.835937-7.164062-16-16-16h-192v16h192v16zm0 0"/><path d="m176 208.003906h32c4.417969 0 8-3.582031 8-8v-48.167968c13.773438-10.332032 19.390625-28.316407 13.949219-44.648438-5.445313-16.335938-20.730469-27.351562-37.949219-27.351562s-32.503906 11.015624-37.949219 27.351562c-5.441406 16.332031.175781 34.316406 13.949219 44.648438v48.167968c0 4.417969 3.582031 8 8 8zm16-112c13.253906 0 24 10.746094 24 24 .003906 8.539063-4.578125 16.425782-12 20.648438-2.46875 1.425781-3.996094 4.058594-4 6.910156v44.441406h-16v-44.441406c-.003906-2.851562-1.53125-5.484375-4-6.910156-7.421875-4.222656-12.003906-12.109375-12-20.648438 0-13.253906 10.746094-24 24-24zm0 0"/><path d="m368 288.003906c-17.671875 0-32 14.328125-32 32s14.328125 32 32 32 32-14.328125 32-32-14.328125-32-32-32zm0 48c-8.835938 0-16-7.164062-16-16 0-8.835937 7.164062-16 16-16s16 7.164063 16 16c0 8.835938-7.164062 16-16 16zm0 0"/><path d="m392 260.691406v-148.6875c0-4.417968-3.582031-8-8-8h-32c-4.417969 0-8 3.582032-8 8v8h-8c-4.417969 0-8 3.582032-8 8v24c0 4.417969 3.582031 8 8 8h8v16h-16c-4.417969 0-8 3.582032-8 8v32c0 4.417969 3.582031 8 8 8h16v36.6875c-28.398438 11.488282-44.671875 41.488282-38.820312 71.554688 5.851562 30.070312 32.1875 51.777344 62.820312 51.777344s56.96875-21.707032 62.820312-51.777344c5.851563-30.066406-10.421874-60.066406-38.820312-71.554688zm-24 107.3125c-23.8125-.023437-44.011719-17.5-47.453125-41.066406-3.4375-23.5625 10.917969-46.089844 33.734375-52.917969 3.390625-1.007812 5.71875-4.125 5.71875-7.664062v-50.351563c0-4.417968-3.582031-8-8-8h-16v-16h16c4.417969 0 8-3.582031 8-8v-32c0-4.417968-3.582031-8-8-8h-8v-8h8c4.417969 0 8-3.582031 8-8v-8h16v146.351563c0 3.539062 2.328125 6.65625 5.71875 7.664062 22.816406 6.828125 37.171875 29.355469 33.734375 52.917969-3.441406 23.566406-23.640625 41.042969-47.453125 41.066406zm0 0"/><path d="m0 272.003906h144v16h-144zm0 0"/><path d="m160 272.003906h128v16h-128zm0 0"/></svg>