<?xml version="1.0" encoding="iso-8859-1"?>
<!-- Generator: Adobe Illustrator 19.0.0, SVG Export Plug-In . SVG Version: 6.00 Build 0)  -->
<svg version="1.1" id="Capa_1" xmlns="http://www.w3.org/2000/svg" xmlns:xlink="http://www.w3.org/1999/xlink" x="0px" y="0px"
	 viewBox="0 0 511.999 511.999" style="enable-background:new 0 0 511.999 511.999;" xml:space="preserve">
<g>
	<g>
		<path d="M431.419,431.502H95.79c-22.194,0-40.249,18.056-40.249,40.248c0,22.193,18.056,40.248,40.249,40.248h254.598
			c4.2,0,7.604-3.405,7.604-7.604s-3.404-7.604-7.604-7.604H95.79c-13.808,0-25.041-11.234-25.041-25.04
			c0-13.808,11.234-25.04,25.041-25.04h335.629c13.807,0,25.04,11.234,25.04,25.04c0,13.808-11.234,25.04-25.04,25.04h-55.683
			c-4.2,0-7.604,3.405-7.604,7.604s3.404,7.604,7.604,7.604h55.683c22.193,0,40.248-18.056,40.248-40.248
			S453.612,431.502,431.419,431.502z"/>
	</g>
</g>
<g>
	<g>
		<path d="M295.189,339.522c-2.042-3.669-6.669-4.989-10.341-2.948c-11.082,6.166-25.114,2.166-31.283-8.918
			c-2.042-3.669-6.672-4.989-10.341-2.948c-3.669,2.041-4.989,6.672-2.947,10.341c6.978,12.546,20.023,19.627,33.453,19.627
			c6.279,0,12.646-1.55,18.512-4.813C295.911,347.821,297.231,343.191,295.189,339.522z"/>
	</g>
</g>
<g>
	<g>
		<path d="M366.512,229.549c-12.064,0-22.76,5.939-29.338,15.042l-4.886-15.156h0.893c6.932,0,13.442-2.703,18.313-7.591
			c4.907-4.89,7.61-11.4,7.61-18.333c0-7.146-2.906-13.625-7.598-18.318c4.899-4.889,7.598-11.394,7.598-18.319
			c0-14.294-11.629-25.923-25.922-25.923h-15.881c-3.503-6.414-7.932-12.368-13.244-17.68
			c-14.588-14.588-33.986-22.622-54.619-22.622c-28.293,0-54.401,15.669-67.843,40.302h-34.049
			c-14.294,0-25.923,11.629-25.923,25.923c0,10.183,5.905,19.01,14.468,23.247c-2.369,3.911-3.735,8.495-3.735,13.392
			c0,14.294,11.629,25.923,25.922,25.923h60.103c4.2,0,7.604-3.405,7.604-7.604s-3.404-7.604-7.604-7.604h-60.103
			c-5.908,0-10.714-4.807-10.714-10.716c0-5.909,4.807-10.716,10.714-10.716h60.103c4.2,0,7.604-3.405,7.604-7.604
			s-3.404-7.604-7.604-7.604h-60.103h-10.732c-5.909,0-10.716-4.807-10.716-10.716c0-5.909,4.807-10.716,10.716-10.716h70.834
			c4.2,0,7.604-3.405,7.604-7.604c0-4.199-3.404-7.604-7.604-7.604h-18.77c11.568-15.54,30.031-25.094,49.827-25.094
			c16.572,0,32.15,6.452,43.865,18.168c11.717,11.716,18.169,27.294,18.169,43.866v35.344c0,0.792,0.124,1.58,0.366,2.333
			l13.722,42.564h-14.054c-3.504-16.313-18.031-28.581-35.375-28.581s-31.871,12.268-35.375,28.581h-21.788
			c-4.2,0-7.604,3.405-7.604,7.604s3.404,7.604,7.604,7.604h21.788c3.504,16.313,18.031,28.581,35.375,28.581
			s31.871-12.269,35.375-28.581h18.957l11.941,37.04h-23.328c-4.2,0-7.604,3.405-7.604,7.604v19.125
			c0,32.973-26.826,59.799-59.799,59.799h-2.235c-34.213,0-62.046-27.828-62.046-62.034v-10.84c4.883-1.504,9.48-4.177,13.337-8.035
			c2.97-2.97,2.97-7.784,0-10.754c-2.97-2.969-7.783-2.97-10.754,0c-6.713,6.716-17.64,6.714-24.354,0
			c-3.253-3.253-5.045-7.577-5.045-12.177c0-4.6,1.792-8.924,5.045-12.176c6.712-6.714,17.639-6.716,24.354,0
			c2.971,2.97,7.784,2.97,10.754,0c2.97-2.97,2.97-7.784,0-10.754c-3.858-3.857-8.455-6.53-13.337-8.035v-17.965
			c0-4.199-3.404-7.604-7.604-7.604c-4.2,0-7.604,3.405-7.604,7.604v17.012c-6.347,1.107-12.425,4.097-17.316,8.988
			c-6.126,6.126-9.499,14.269-9.499,22.93c0,8.662,3.373,16.806,9.499,22.931c4.891,4.891,10.97,7.881,17.316,8.988v9.887
			c-0.001,42.591,34.655,77.242,77.253,77.242h2.235c41.359,0,75.006-33.648,75.006-75.006v-11.522h26.165
			c2.43,0,4.716-1.162,6.147-3.128c1.432-1.965,1.837-4.495,1.091-6.81l-5.03-15.601c3.604,1.206,7.455,1.871,11.46,1.871
			c19.953,0,36.184-16.233,36.184-36.185S386.464,229.549,366.512,229.549z M276.132,286.712c-11.567,0-20.977-9.411-20.977-20.977
			c0-11.566,9.41-20.977,20.977-20.977s20.977,9.41,20.977,20.977S287.699,286.712,276.132,286.712z M323.581,156.157h9.6
			c5.908,0,10.714,4.807,10.714,10.716c0,2.859-1.114,5.544-3.155,7.579c-2.016,2.023-4.7,3.137-7.559,3.137h-6.509
			C326.645,170.229,325.587,163.034,323.581,156.157z M327.385,214.227l-0.706-2.189v-19.242h6.502
			c5.908,0,10.715,4.807,10.715,10.716c0.001,2.859-1.113,5.544-3.155,7.579c-2.016,2.023-4.7,3.137-7.559,3.137H327.385z
			 M366.512,286.711c-11.567,0-20.977-9.411-20.977-20.977s9.41-20.977,20.977-20.977c11.566,0,20.976,9.41,20.976,20.977
			S378.079,286.711,366.512,286.711z"/>
	</g>
</g>
<g>
	<g>
		<path d="M259.589,0C165.078,0,88.186,76.89,88.186,171.402v41.272c0,4.199,3.404,7.604,7.604,7.604s7.604-3.405,7.604-7.604
			v-41.272c0-86.127,70.068-156.194,156.195-156.194s156.194,70.068,156.194,156.194v242.356c0,4.199,3.404,7.604,7.604,7.604
			s7.604-3.405,7.604-7.604V171.402C430.99,76.89,354.099,0,259.589,0z"/>
	</g>
</g>
<g>
	<g>
		<path d="M95.79,230.418c-4.2,0-7.604,3.405-7.604,7.604v175.736c0,4.199,3.404,7.604,7.604,7.604s7.604-3.405,7.604-7.604V238.022
			C103.394,233.823,99.991,230.418,95.79,230.418z"/>
	</g>
</g>
<g>
	<g>
		<path d="M399.745,376.922h-8.618v-21.291c0-4.199-3.404-7.604-7.604-7.604s-7.604,3.405-7.604,7.604v21.291h-8.618
			c-4.2,0-7.604,3.405-7.604,7.604s3.404,7.604,7.604,7.604h8.618v21.292c0,4.199,3.404,7.604,7.604,7.604s7.604-3.405,7.604-7.604
			V392.13h8.618c4.2,0,7.604-3.405,7.604-7.604S403.945,376.922,399.745,376.922z"/>
	</g>
</g>
<g>
	<g>
		<path d="M101.991,54.008H82.567V24.099c0-4.199-3.404-7.604-7.604-7.604c-4.2,0-7.604,3.405-7.604,7.604v29.909H47.936
			c-4.2,0-7.604,3.405-7.604,7.604s3.404,7.604,7.604,7.604h19.424v29.909c0,4.199,3.404,7.604,7.604,7.604
			c4.2,0,7.604-3.405,7.604-7.604V69.216h19.424c4.2,0,7.604-3.405,7.604-7.604S106.191,54.008,101.991,54.008z"/>
	</g>
</g>
<g>
</g>
<g>
</g>
<g>
</g>
<g>
</g>
<g>
</g>
<g>
</g>
<g>
</g>
<g>
</g>
<g>
</g>
<g>
</g>
<g>
</g>
<g>
</g>
<g>
</g>
<g>
</g>
<g>
</g>
</svg>
